<svg xmlns="http://www.w3.org/2000/svg" viewBox="0 0 510 132" fill="none" preserveAspectRatio="xMidYMid meet">
  <rect width="510" height="132" rx="20" fill="#000"/>
  <g transform="translate(36 36)">
    <!-- Apple logo -->
    <path d="M32.16 31.7c-.05-5.6 4.57-8.3 4.78-8.43-2.6-3.8-6.66-4.32-8.1-4.38-3.45-.35-6.74 2.04-8.48 2.04-1.78 0-4.45-2-7.32-1.94-3.77.06-7.25 2.19-9.17 5.57-3.92 6.78-1 16.81 2.83 22.32 1.87 2.7 4.1 5.72 7.04 5.6 2.83-.11 3.9-1.83 7.31-1.83 3.4 0 4.36 1.83 7.34 1.77 3.03-.05 4.96-2.73 6.81-5.45 2.15-3.1 3.04-6.16 3.09-6.32-.07-.03-5.93-2.27-5.98-9.0Zm-5.55-16.5c1.55-1.88 2.6-4.5 2.31-7.1-2.24.09-4.96 1.5-6.58 3.37-1.46 1.67-2.73 4.34-2.39 6.9 2.51.19 5.08-1.27 6.66-3.16Z" fill="#fff"/>
  </g>
  <g transform="translate(108 0)">
    <text x="0" y="56" font-family="-apple-system, SF Pro Display, Helvetica, Arial, sans-serif" font-size="22" font-weight="500" fill="#fff" letter-spacing="0.4">Add to</text>
    <text x="0" y="92" font-family="-apple-system, SF Pro Display, Helvetica, Arial, sans-serif" font-size="32" font-weight="600" fill="#fff" letter-spacing="0.2">Apple Wallet</text>
  </g>
</svg>
