<svg xmlns="http://www.w3.org/2000/svg" viewBox="0 0 510 132" fill="none" preserveAspectRatio="xMidYMid meet">
  <rect width="510" height="132" rx="20" fill="#000"/>
  <g transform="translate(28 24)">
    <!-- Google G mark, simplified four-colour ring -->
    <circle cx="42" cy="42" r="42" fill="#fff"/>
    <path d="M82 42c0-2.9-.26-5.7-.74-8.4H42v15.9h22.4c-1 5.2-3.9 9.6-8.3 12.5v10.4h13.4c7.8-7.2 12.5-17.8 12.5-30.4Z" fill="#4285F4"/>
    <path d="M42 84c11.3 0 20.8-3.7 27.7-10.1L56.3 63.5c-3.7 2.5-8.5 4-14.3 4-11 0-20.3-7.4-23.6-17.4H4.6v10.9C11.5 74.7 25.5 84 42 84Z" fill="#34A853"/>
    <path d="M18.4 50.1c-.8-2.5-1.3-5.2-1.3-8.1s.5-5.6 1.3-8.1V23H4.6C1.7 28.7 0 35.2 0 42c0 6.8 1.7 13.3 4.6 19l13.8-10.9Z" fill="#FBBC04"/>
    <path d="M42 16.6c6.2 0 11.7 2.1 16.1 6.3l12-12C62.8 4.1 53.3 0 42 0 25.5 0 11.5 9.3 4.6 23l13.8 10.9C21.7 24 31 16.6 42 16.6Z" fill="#EA4335"/>
  </g>
  <g transform="translate(132 0)">
    <text x="0" y="56" font-family="Google Sans, Roboto, Arial, sans-serif" font-size="22" font-weight="500" fill="#fff" letter-spacing="0.4">Add to</text>
    <text x="0" y="92" font-family="Google Sans, Roboto, Arial, sans-serif" font-size="32" font-weight="600" fill="#fff" letter-spacing="0.2">Google Wallet</text>
  </g>
</svg>
